<svg width="1600" height="900" viewBox="0 0 1600 900" fill="none" xmlns="http://www.w3.org/2000/svg" role="img" aria-labelledby="title desc">
  <title id="title">Image Format Converter Hero</title>
  <desc id="desc">A 16 by 9 hero illustration showing browser based image conversion between WebP, PNG, JPEG, TIFF, BMP, and GIF formats.</desc>

  <defs>
    <linearGradient id="bg" x1="120" y1="50" x2="1480" y2="850" gradientUnits="userSpaceOnUse">
      <stop stop-color="#082F49"/>
      <stop offset="0.48" stop-color="#0F766E"/>
      <stop offset="1" stop-color="#F97316"/>
    </linearGradient>

    <radialGradient id="glowA" cx="0" cy="0" r="1" gradientUnits="userSpaceOnUse" gradientTransform="translate(365 215) rotate(43) scale(430 360)">
      <stop stop-color="#A7F3D0" stop-opacity="0.78"/>
      <stop offset="1" stop-color="#A7F3D0" stop-opacity="0"/>
    </radialGradient>

    <radialGradient id="glowB" cx="0" cy="0" r="1" gradientUnits="userSpaceOnUse" gradientTransform="translate(1260 690) rotate(39) scale(520 400)">
      <stop stop-color="#FDBA74" stop-opacity="0.72"/>
      <stop offset="1" stop-color="#FDBA74" stop-opacity="0"/>
    </radialGradient>

    <linearGradient id="card" x1="295" y1="155" x2="1300" y2="760" gradientUnits="userSpaceOnUse">
      <stop stop-color="#F8FAFC" stop-opacity="0.96"/>
      <stop offset="1" stop-color="#ECFEFF" stop-opacity="0.88"/>
    </linearGradient>

    <linearGradient id="imageGrad" x1="430" y1="282" x2="712" y2="548" gradientUnits="userSpaceOnUse">
      <stop stop-color="#38BDF8"/>
      <stop offset="0.52" stop-color="#14B8A6"/>
      <stop offset="1" stop-color="#84CC16"/>
    </linearGradient>

    <linearGradient id="resultGrad" x1="925" y1="282" x2="1208" y2="548" gradientUnits="userSpaceOnUse">
      <stop stop-color="#F97316"/>
      <stop offset="0.5" stop-color="#FB7185"/>
      <stop offset="1" stop-color="#8B5CF6"/>
    </linearGradient>

    <filter id="shadow" x="235" y="112" width="1130" height="696" filterUnits="userSpaceOnUse" color-interpolation-filters="sRGB">
      <feFlood flood-opacity="0" result="BackgroundImageFix"/>
      <feColorMatrix in="SourceAlpha" type="matrix" values="0 0 0 0 0 0 0 0 0 0 0 0 0 0 0 0 0 0 127 0" result="hardAlpha"/>
      <feOffset dy="24"/>
      <feGaussianBlur stdDeviation="32"/>
      <feComposite in2="hardAlpha" operator="out"/>
      <feColorMatrix type="matrix" values="0 0 0 0 0.02 0 0 0 0 0.12 0 0 0 0 0.18 0 0 0 0.26 0"/>
      <feBlend mode="normal" in2="BackgroundImageFix" result="effect1_dropShadow_1"/>
      <feBlend mode="normal" in="SourceGraphic" in2="effect1_dropShadow_1" result="shape"/>
    </filter>

    <filter id="softShadow" x="0" y="0" width="200%" height="200%" filterUnits="objectBoundingBox" color-interpolation-filters="sRGB">
      <feDropShadow dx="0" dy="14" stdDeviation="18" flood-color="#0F172A" flood-opacity="0.18"/>
    </filter>

    <pattern id="dots" width="34" height="34" patternUnits="userSpaceOnUse">
      <circle cx="2" cy="2" r="2" fill="#FFFFFF" opacity="0.22"/>
    </pattern>
  </defs>

  <rect width="1600" height="900" rx="0" fill="url(#bg)"/>
  <rect width="1600" height="900" fill="url(#glowA)"/>
  <rect width="1600" height="900" fill="url(#glowB)"/>
  <rect width="1600" height="900" fill="url(#dots)"/>

  <path d="M-60 710C162 596 255 776 446 693C638 610 608 390 845 359C1082 328 1174 502 1375 407C1488 354 1580 246 1680 230" stroke="#FFFFFF" stroke-opacity="0.22" stroke-width="2"/>
  <path d="M-70 215C141 319 260 122 468 222C675 322 641 566 873 590C1104 614 1193 410 1398 512C1506 566 1597 679 1672 702" stroke="#FFFFFF" stroke-opacity="0.16" stroke-width="2"/>

  <g filter="url(#shadow)">
    <rect x="280" y="150" width="1040" height="610" rx="54" fill="url(#card)"/>
    <rect x="281.5" y="151.5" width="1037" height="607" rx="52.5" stroke="#FFFFFF" stroke-opacity="0.76" stroke-width="3"/>
  </g>

  <g opacity="0.86">
    <rect x="340" y="210" width="920" height="72" rx="28" fill="#FFFFFF"/>
    <circle cx="388" cy="246" r="12" fill="#F43F5E"/>
    <circle cx="424" cy="246" r="12" fill="#F59E0B"/>
    <circle cx="460" cy="246" r="12" fill="#10B981"/>
    <rect x="520" y="232" width="300" height="28" rx="14" fill="#E2E8F0"/>
    <rect x="850" y="232" width="120" height="28" rx="14" fill="#CCFBF1"/>
    <rect x="992" y="232" width="190" height="28" rx="14" fill="#FED7AA"/>
  </g>

  <g filter="url(#softShadow)">
    <rect x="380" y="335" width="330" height="258" rx="34" fill="#FFFFFF"/>
    <rect x="406" y="362" width="278" height="150" rx="26" fill="url(#imageGrad)"/>
    <circle cx="615" cy="398" r="32" fill="#F8FAFC" fill-opacity="0.85"/>
    <path d="M422 492L493 419L550 475L584 440L667 512H422V492Z" fill="#FFFFFF" fill-opacity="0.84"/>
    <rect x="420" y="536" width="116" height="28" rx="14" fill="#DCFCE7"/>
    <text x="478" y="556" fill="#065F46" font-family="Inter, ui-sans-serif, system-ui, sans-serif" font-size="18" font-weight="800" text-anchor="middle">WEBP</text>
    <rect x="552" y="536" width="116" height="28" rx="14" fill="#DBEAFE"/>
    <text x="610" y="556" fill="#1D4ED8" font-family="Inter, ui-sans-serif, system-ui, sans-serif" font-size="18" font-weight="800" text-anchor="middle">PNG</text>
  </g>

  <g filter="url(#softShadow)">
    <rect x="890" y="335" width="330" height="258" rx="34" fill="#FFFFFF"/>
    <rect x="916" y="362" width="278" height="150" rx="26" fill="url(#resultGrad)"/>
    <circle cx="1125" cy="398" r="32" fill="#FFF7ED" fill-opacity="0.9"/>
    <path d="M932 492L1003 419L1060 475L1094 440L1177 512H932V492Z" fill="#FFFFFF" fill-opacity="0.86"/>
    <rect x="930" y="536" width="116" height="28" rx="14" fill="#FFEDD5"/>
    <text x="988" y="556" fill="#C2410C" font-family="Inter, ui-sans-serif, system-ui, sans-serif" font-size="18" font-weight="800" text-anchor="middle">JPG</text>
    <rect x="1062" y="536" width="116" height="28" rx="14" fill="#F3E8FF"/>
    <text x="1120" y="556" fill="#7E22CE" font-family="Inter, ui-sans-serif, system-ui, sans-serif" font-size="18" font-weight="800" text-anchor="middle">TIFF</text>
  </g>

  <g>
    <path d="M743 437H836" stroke="#0F766E" stroke-width="16" stroke-linecap="round"/>
    <path d="M817 401L855 437L817 473" stroke="#0F766E" stroke-width="16" stroke-linecap="round" stroke-linejoin="round"/>
    <circle cx="790" cy="437" r="58" fill="#CCFBF1" fill-opacity="0.58"/>
    <path d="M743 437H836" stroke="#0F766E" stroke-width="16" stroke-linecap="round"/>
    <path d="M817 401L855 437L817 473" stroke="#0F766E" stroke-width="16" stroke-linecap="round" stroke-linejoin="round"/>
  </g>

  <g filter="url(#softShadow)">
    <rect x="454" y="642" width="692" height="58" rx="29" fill="#0F172A"/>
    <circle cx="500" cy="671" r="14" fill="#22C55E"/>
    <text x="528" y="679" fill="#F8FAFC" font-family="Inter, ui-sans-serif, system-ui, sans-serif" font-size="22" font-weight="800">Browser-only conversion</text>
    <rect x="840" y="654" width="96" height="34" rx="17" fill="#115E59"/>
    <text x="888" y="678" fill="#CCFBF1" font-family="Inter, ui-sans-serif, system-ui, sans-serif" font-size="17" font-weight="800" text-anchor="middle">PNG</text>
    <rect x="950" y="654" width="96" height="34" rx="17" fill="#7C2D12"/>
    <text x="998" y="678" fill="#FED7AA" font-family="Inter, ui-sans-serif, system-ui, sans-serif" font-size="17" font-weight="800" text-anchor="middle">JPG</text>
    <rect x="1060" y="654" width="58" height="34" rx="17" fill="#1E3A8A"/>
    <text x="1089" y="678" fill="#DBEAFE" font-family="Inter, ui-sans-serif, system-ui, sans-serif" font-size="17" font-weight="800" text-anchor="middle">GIF</text>
  </g>

  <g opacity="0.72">
    <rect x="216" y="232" width="74" height="74" rx="24" fill="#FFFFFF" fill-opacity="0.22"/>
    <path d="M241 268H265M253 256V280" stroke="#FFFFFF" stroke-width="7" stroke-linecap="round"/>
    <rect x="1308" y="594" width="88" height="88" rx="28" fill="#FFFFFF" fill-opacity="0.18"/>
    <path d="M1336 638H1368M1352 622V654" stroke="#FFFFFF" stroke-width="8" stroke-linecap="round"/>
    <circle cx="1322" cy="208" r="34" fill="#FFFFFF" fill-opacity="0.15"/>
    <circle cx="230" cy="662" r="44" fill="#FFFFFF" fill-opacity="0.14"/>
  </g>
</svg>
